<svg xmlns="http://www.w3.org/2000/svg" viewBox="0 0 24 24" id="apple-music"><g fill-rule="evenodd"><path d="M9.5,13.8959c-0.42468,-0.2534 -0.94704,-0.3959 -1.5,-0.3959c-0.65001,0 -1.25773,0.197 -1.71421,0.5393c-0.45665,0.3425 -0.78579,0.8538 -0.78579,1.4607c0,0.6069 0.32914,1.1182 0.78579,1.4607c0.45648,0.3423 1.0642,0.5393 1.71421,0.5393c0.65001,0 1.25773,-0.197 1.71421,-0.5393c0.45579,-0.3419 0.78459,-0.852 0.78579,-1.4575v-5.3941l6,-2.37359v5.16039c-0.4247,-0.2534 -0.947,-0.3959 -1.5,-0.3959c-0.65,0 -1.2577,0.197 -1.7142,0.5393c-0.4567,0.3425 -0.7858,0.8538 -0.7858,1.4607c0,0.6069 0.3291,1.1182 0.7858,1.4607c0.4565,0.3423 1.0642,0.5393 1.7142,0.5393c0.65,0 1.2577,-0.197 1.7142,-0.5393c0.3912,-0.2935 0.6889,-0.7108 0.7661,-1.206c0.0128,-0.0442 0.0197,-0.091 0.0197,-0.1393v-7.6154c0,-0.16557 -0.082,-0.32041 -0.2189,-0.4135c-0.1369,-0.09309 -0.3111,-0.11235 -0.465,-0.05144l-7.00003,2.76923c-0.19076,0.07547 -0.31607,0.2598 -0.31607,0.46494v4.12667Zm-3,1.6041c0,-0.2215 0.11857,-0.4602 0.38579,-0.6607c0.26737,-0.2005 0.65965,-0.3393 1.11421,-0.3393c0.45456,0 0.84684,0.1388 1.11421,0.3393c0.26722,0.2005 0.38579,0.4392 0.38579,0.6607c0,0.2215 -0.11857,0.4602 -0.38579,0.6607c-0.26737,0.2005 -0.65965,0.3393 -1.11421,0.3393c-0.45456,0 -0.84684,-0.1388 -1.11421,-0.3393c-0.26722,-0.2005 -0.38579,-0.4392 -0.38579,-0.6607Zm10,-1c0,-0.2215 -0.1186,-0.4602 -0.3858,-0.6607c-0.2674,-0.2005 -0.6596,-0.3393 -1.1142,-0.3393c-0.4546,0 -0.8468,0.1388 -1.1142,0.3393c-0.2672,0.2005 -0.3858,0.4392 -0.3858,0.6607c0,0.2215 0.1186,0.4602 0.3858,0.6607c0.2674,0.2005 0.6596,0.3393 1.1142,0.3393c0.4546,0 0.8468,-0.1388 1.1142,-0.3393c0.2672,-0.2005 0.3858,-0.4392 0.3858,-0.6607Z"></path><path d="M12,1.5c-5.79899,0 -10.5,4.70101 -10.5,10.5c0,5.799 4.70101,10.5 10.5,10.5c5.799,0 10.5,-4.701 10.5,-10.5c0,-5.79899 -4.701,-10.5 -10.5,-10.5Zm-9.5,10.5c0,-5.24671 4.25329,-9.5 9.5,-9.5c5.2467,0 9.5,4.25329 9.5,9.5c0,5.2467 -4.2533,9.5 -9.5,9.5c-5.24671,0 -9.5,-4.2533 -9.5,-9.5Z"></path></g></svg>